<?xml version="1.0" standalone="no"?>
<!DOCTYPE svg PUBLIC "-//W3C//DTD SVG 20010904//EN"
 "http://www.w3.org/TR/2001/REC-SVG-20010904/DTD/svg10.dtd">
<svg version="1.0" xmlns="http://www.w3.org/2000/svg"
 width="469.000000pt" height="469.000000pt" viewBox="0 0 469.000000 469.000000"
 preserveAspectRatio="xMidYMid meet">
<metadata>
Created by potrace 1.11, written by Peter Selinger 2001-2013
</metadata>
<g transform="translate(0.000000,469.000000) scale(0.100000,-0.100000)"
fill="#000000" stroke="none">
<path d="M3992 4542 c-61 -75 -118 -144 -125 -152 -29 -31 -336 -410 -333
-410 1 0 -19 -23 -45 -52 -26 -29 -45 -56 -43 -60 3 -4 1 -8 -4 -8 -5 0 -56
-57 -113 -127 -90 -112 -133 -165 -183 -223 -17 -20 -300 -368 -406 -498 -47
-58 -90 -107 -95 -109 -6 -2 -15 12 -21 29 -16 46 -83 217 -99 253 -7 17 -35
86 -61 155 -26 69 -51 130 -55 135 -5 6 -153 9 -416 9 -224 -1 -411 -2 -415
-3 -5 -1 33 -112 61 -176 5 -11 14 -36 21 -55 7 -19 16 -44 21 -55 5 -11 49
-128 99 -260 50 -132 95 -249 100 -260 5 -11 32 -83 61 -160 28 -77 58 -155
66 -173 8 -18 25 -62 38 -97 l23 -63 -70 -89 c-82 -105 -109 -139 -124 -156
-5 -7 -38 -48 -73 -92 -34 -44 -75 -96 -91 -115 -16 -19 -86 -106 -155 -194
-69 -87 -143 -179 -164 -205 -20 -25 -80 -100 -132 -166 -51 -66 -96 -122 -99
-125 -3 -3 -19 -23 -36 -45 -16 -22 -34 -44 -40 -50 -12 -12 -61 -73 -146
-185 -24 -30 -45 -57 -48 -60 -3 -3 -39 -48 -80 -100 -73 -92 -80 -102 -108
-135 -8 -9 -60 -75 -117 -148 -58 -73 -110 -139 -118 -147 -7 -8 -35 -44 -63
-80 -27 -36 -56 -70 -64 -77 -12 -10 31 -12 206 -13 l222 0 58 72 c33 40 62
75 65 78 3 3 41 48 85 100 43 52 83 100 89 107 13 16 17 21 146 175 142 171
177 212 217 259 18 21 33 39 31 41 -1 2 19 26 45 53 25 28 46 56 46 63 0 6 4
12 9 12 7 0 49 46 139 155 10 11 51 61 92 110 41 50 77 92 80 95 3 3 48 57
100 120 52 63 97 117 100 120 3 3 36 42 74 88 38 46 72 80 76 75 4 -4 46 -100
94 -213 49 -113 96 -223 106 -245 10 -22 35 -79 55 -127 l37 -88 57 -1 c209
-1 774 0 776 3 2 2 -41 118 -96 258 -55 140 -113 291 -130 335 -17 44 -35 90
-40 103 -19 46 -29 71 -93 237 -36 94 -92 239 -125 324 -33 85 -58 158 -55
163 6 9 141 176 530 653 308 379 353 434 397 486 33 40 51 84 123 300 47 140
87 261 89 269 2 8 29 89 60 180 30 91 58 176 61 189 3 13 11 39 19 57 8 19 11
34 8 34 -3 0 0 7 7 15 7 9 11 18 8 20 -2 2 -54 -57 -116 -133z"/>
</g>
</svg>
